<svg width="17" height="17" viewBox="0 0 17 17" fill="none" xmlns="http://www.w3.org/2000/svg">
<g clip-path="url(#clip0)">
<path d="M0.8778 0.000320435C0.654097 0.000320435 0.43018 0.0852757 0.260055 0.256681C-0.0814766 0.598213 -0.0814766 1.15213 0.260055 1.49367L15.5092 16.7428C15.851 17.0846 16.4047 17.0846 16.7462 16.7428C17.0877 16.4013 17.0877 15.8476 16.7462 15.5061L1.49683 0.256681C1.32542 0.0852757 1.10172 0.000320435 0.8778 0.000320435Z" fill="#333333"/>
<path d="M16.1282 5.53131e-05C15.9045 5.53131e-05 15.6806 0.0850105 15.5105 0.256418L0.260055 15.5069C-0.0814766 15.8486 -0.0814766 16.4023 0.260055 16.7439C0.601586 17.0854 1.15529 17.0854 1.49683 16.7439L16.7462 1.4934C17.0877 1.15187 17.0877 0.597948 16.7462 0.256418C16.5748 0.0850105 16.3511 5.53131e-05 16.1282 5.53131e-05Z" fill="#333333"/>
</g>
<defs>
<clipPath id="clip0">
<rect width="17" height="17" transform="matrix(1 0 0 -1 0 17)" fill="white"/>
</clipPath>
</defs>
</svg>
